<?xml version="1.0" standalone="no"?>
<!DOCTYPE svg PUBLIC "-//W3C//DTD SVG 20010904//EN"
 "http://www.w3.org/TR/2001/REC-SVG-20010904/DTD/svg10.dtd">
<svg version="1.0" xmlns="http://www.w3.org/2000/svg"
 width="250.000000pt" height="250.000000pt" viewBox="0 0 250.000000 250.000000"
 preserveAspectRatio="xMidYMid meet">
<metadata>
Created by potrace 1.14, written by Peter Selinger 2001-2017
</metadata>
<g transform="translate(0.000000,250.000000) scale(0.100000,-0.100000)"
fill="#000000" stroke="none">
<path d="M0 1736 l0 -764 55 -4 c30 -1 55 -1 55 2 0 3 36 3 80 0 44 -3 80 -3
80 0 0 3 40 3 90 0 50 -3 90 -3 90 0 0 3 54 3 120 0 66 -3 120 -3 120 0 0 3
27 3 61 2 l60 -4 -97 -94 c-53 -52 -104 -94 -113 -95 -9 0 -148 -1 -308 -1
l-293 -1 0 -389 0 -388 1250 0 1250 0 0 389 0 388 -298 0 c-164 0 -304 3 -310
7 -7 4 -12 5 -12 2 0 -3 -42 36 -94 87 -51 50 -91 96 -88 101 2 4 8 3 12 -4 5
-9 9 -9 14 -1 4 6 12 9 17 5 12 -7 229 -11 229 -4 0 3 54 3 120 0 66 -3 120
-3 120 0 0 3 32 3 70 0 39 -3 70 -3 70 0 0 3 34 4 75 2 l75 -4 0 766 0 766
-1250 0 -1250 0 0 -764z m178 679 c6 -2 12 -1 12 3 0 4 25 7 55 7 30 0 55 -4
55 -8 0 -5 6 -5 12 -1 15 10 48 13 48 5 0 -3 16 -6 35 -6 19 0 35 2 35 5 0 7
115 5 126 -3 6 -3 16 -2 23 2 7 5 30 5 52 1 21 -4 39 -5 39 -1 0 3 25 6 55 6
30 0 55 -4 55 -8 0 -5 6 -5 12 -1 15 10 48 13 48 5 0 -3 16 -6 35 -6 19 0 35
2 35 5 0 7 115 5 126 -3 6 -3 16 -2 23 2 7 5 30 5 52 1 21 -4 39 -5 39 -1 0 3
25 6 55 6 30 0 55 -4 55 -8 0 -5 6 -5 12 -1 15 10 48 13 48 5 0 -3 16 -6 35
-6 19 0 35 2 35 5 0 7 115 5 126 -3 6 -3 16 -2 23 2 7 5 30 5 52 1 21 -4 39
-5 39 -1 0 3 25 6 55 6 30 0 55 -4 55 -8 0 -5 6 -5 12 -1 15 10 48 13 48 5 0
-3 16 -6 35 -6 19 0 35 2 35 5 0 7 115 5 126 -3 6 -3 16 -2 23 2 7 5 30 5 52
1 21 -4 39 -5 39 -1 0 3 25 6 55 6 30 0 55 -4 55 -8 0 -5 6 -5 12 -1 15 10 48
13 48 5 0 -3 16 -6 35 -6 19 0 35 3 35 6 0 9 62 1 69 -9 3 -6 6 -313 5 -684
l0 -673 -1172 -3 -1172 -2 -1 27 c-1 16 0 33 1 38 1 6 2 15 1 20 -4 37 -5 135
-1 135 3 0 5 16 5 35 0 19 -3 35 -6 35 -8 0 -5 33 5 48 4 6 4 12 -1 12 -4 0
-8 25 -8 55 0 30 3 55 6 55 4 0 3 18 -1 39 -4 22 -4 45 1 52 4 7 5 17 2 23 -8
11 -10 126 -3 126 3 0 5 16 5 35 0 19 -3 35 -6 35 -8 0 -5 33 5 48 4 6 4 12
-1 12 -4 0 -8 25 -8 55 0 30 3 55 6 55 4 0 3 18 -1 39 -4 22 -4 45 1 52 4 7 5
17 2 23 -8 11 -10 126 -3 126 3 0 5 16 5 35 0 19 -2 35 -5 35 -8 0 -5 64 4 78
4 7 3 12 -2 12 -6 0 -8 8 -5 18 4 15 12 18 46 15 23 -2 48 -6 55 -8z m838
-1444 c8 6 14 8 14 3 0 -11 51 -10 68 0 7 4 12 3 12 -2 0 -12 34 -11 42 2 5 7
8 6 8 -3 0 -11 3 -11 15 -1 8 7 15 9 15 4 0 -11 51 -10 68 0 7 4 12 3 12 -2 0
-12 34 -11 42 2 5 7 8 6 8 -3 0 -11 3 -11 15 -1 8 7 15 9 15 4 0 -11 51 -10
68 0 7 4 12 3 12 -2 0 -12 34 -11 42 2 5 7 8 6 8 -3 0 -11 3 -11 15 -1 8 7 15
8 15 3 0 -5 14 -8 30 -5 27 4 41 -6 125 -89 66 -64 91 -95 83 -101 -7 -4 -14
-4 -16 1 -3 9 -57 5 -73 -4 -5 -4 -9 -3 -9 2 0 10 -692 9 -709 -1 -6 -4 -11
-3 -11 2 0 10 -54 7 -71 -3 -5 -4 -9 -2 -9 3 0 5 -15 8 -32 5 -18 -2 -43 -1
-55 2 -19 4 -11 16 72 94 83 79 97 89 124 86 19 -3 31 0 32 8 0 8 2 8 6 -1 4
-10 8 -10 19 -1z m544 -275 c0 -1 -19 -23 -43 -48 -71 -77 -114 -185 -108
-273 5 -65 10 -82 39 -145 8 -19 16 -38 16 -41 1 -3 8 -12 16 -21 51 -52 78
-87 70 -90 -6 -2 -44 -1 -86 2 -42 3 -77 3 -79 0 -2 -3 -38 -3 -80 0 -42 3
-78 3 -80 0 -2 -3 -38 -3 -80 0 -42 3 -78 3 -80 0 -2 -3 -38 -3 -80 0 -42 3
-78 3 -80 0 -2 -3 -38 -3 -80 0 -42 3 -78 3 -80 0 -2 -3 -38 -3 -80 0 -42 3
-78 3 -80 0 -2 -3 -38 -3 -80 0 -42 3 -78 3 -80 0 -2 -3 -38 -3 -80 0 -42 3
-78 4 -80 2 -2 -2 -43 -4 -91 -4 -99 0 -95 -3 -94 92 0 8 -1 43 -2 78 -2 34
-1 62 2 62 3 0 5 16 5 35 0 19 -3 35 -6 35 -8 0 -5 33 5 48 4 6 4 12 -1 12 -4
0 -8 25 -8 55 0 30 3 55 6 55 4 0 3 18 -1 39 -4 22 -4 45 1 52 4 7 3 21 -2 30
-6 12 -5 19 4 22 11 3 1477 6 1477 3z m864 -306 l0 -305 -37 -1 c-20 0 -39 -2
-41 -5 -2 -2 -39 -2 -81 1 -42 3 -78 3 -80 0 -2 -3 -38 -3 -80 0 -42 3 -78 3
-80 0 -2 -3 -38 -3 -80 0 -42 3 -78 3 -80 0 -2 -3 -38 -3 -80 0 -42 3 -79 2
-81 -2 -11 -18 -113 30 -155 73 -37 38 -80 105 -72 113 4 3 2 6 -4 6 -13 0
-14 10 -16 110 -1 95 3 130 16 130 4 0 6 4 3 9 -3 5 1 14 9 21 8 7 15 18 15
25 0 8 3 15 8 17 4 2 19 18 35 36 15 19 27 30 27 25 0 -4 4 -2 8 5 5 7 24 21
43 31 31 17 64 18 419 17 l384 -1 0 -305z"/>
<path d="M182 2315 c-8 -12 -10 -1165 -2 -1166 26 -5 2125 -2 2133 3 15 9 17
1157 2 1166 -17 11 -2126 8 -2133 -3z m2103 -577 c0 -480 -2 -547 -15 -550
-13 -3 -2019 -2 -2045 1 -7 1 -10 187 -9 539 1 295 2 542 3 547 1 7 352 10
1033 10 l1033 0 0 -547z"/>
<path d="M459 1988 c0 -24 -1 -81 -1 -127 -1 -95 -12 -150 -37 -168 -19 -15
-75 -17 -101 -3 -24 13 -35 -13 -14 -31 22 -18 107 -16 137 4 37 24 49 75 51
219 1 114 -1 131 -16 139 -16 9 -18 4 -19 -33z"/>
<path d="M696 2018 c-162 -35 -185 -275 -34 -354 59 -31 175 -4 206 47 21 34
-6 45 -38 15 -56 -52 -107 -60 -160 -23 -130 87 -72 301 76 284 32 -3 55 -13
75 -33 22 -21 32 -25 41 -16 9 9 6 18 -13 38 -39 42 -90 56 -153 42z"/>
<path d="M1034 2014 c-79 -27 -131 -123 -114 -214 19 -105 124 -174 221 -145
34 10 89 53 89 69 0 20 -27 28 -34 10 -8 -22 -68 -54 -99 -54 -73 0 -137 66
-142 144 -5 89 56 166 133 166 38 0 87 -23 100 -47 6 -10 16 -14 27 -9 16 6
16 8 2 29 -34 52 -114 75 -183 51z"/>
<path d="M1311 2022 c-7 -2 -11 -62 -11 -188 l0 -184 83 0 c133 0 197 43 216
144 18 96 -29 191 -105 216 -33 11 -161 19 -183 12z m190 -55 c19 -12 40 -36
48 -52 33 -68 11 -175 -43 -210 -26 -17 -165 -32 -167 -18 -1 11 -1 253 0 281
1 20 6 22 65 22 49 0 70 -5 97 -23z"/>
<path d="M1723 1909 c-53 -26 -77 -74 -70 -137 8 -71 49 -113 122 -126 50 -9
147 49 115 69 -5 3 -23 -4 -39 -16 -38 -28 -78 -32 -113 -11 -31 18 -57 70
-41 80 6 4 59 7 118 6 l107 -1 -5 40 c-6 45 -38 83 -84 103 -43 19 -61 18
-110 -7z m135 -44 c12 -14 22 -35 22 -46 0 -17 -8 -19 -95 -19 -84 0 -95 2
-95 18 0 24 28 61 54 73 35 14 89 2 114 -26z"/>
<path d="M1953 1922 c-9 -6 2 -42 42 -137 73 -175 76 -176 147 -3 37 89 52
135 44 140 -17 11 -25 -2 -71 -123 l-43 -113 -17 40 c-9 21 -30 73 -47 114
-33 85 -38 92 -55 82z"/>
<path d="M149 635 c-3 -66 -4 -232 -1 -242 2 -7 16 -11 33 -9 16 2 29 0 29 -3
0 -4 9 -7 20 -7 11 0 20 3 20 6 0 9 32 6 48 -4 6 -4 12 -3 12 3 0 10 25 9 36
-2 10 -9 26 -9 20 1 -5 8 62 7 71 -1 3 -3 15 -2 28 3 14 5 26 5 34 -3 8 -8 11
-8 11 0 0 13 32 12 42 -2 5 -6 8 -5 8 4 0 11 3 11 15 1 9 -7 15 -8 15 -2 0 12
33 10 42 -3 5 -6 8 -5 8 4 0 11 3 11 15 1 9 -7 15 -8 15 -2 0 12 33 10 42 -3
5 -6 8 -5 8 4 0 11 3 11 15 1 8 -7 15 -8 15 -3 0 5 9 9 20 9 11 0 20 -4 20 -9
0 -5 6 -4 13 2 8 6 16 8 20 5 8 -8 67 -12 67 -4 0 9 32 6 48 -4 6 -4 12 -3 12
3 0 10 25 9 36 -2 10 -9 26 -9 21 1 -7 10 77 9 84 -2 4 -4 7 55 6 133 0 77 -2
141 -6 142 -3 1 -216 2 -474 2 -461 2 -467 2 -468 -18z m884 -24 c27 -1 27 -2
26 -60 -1 -32 2 -64 5 -70 4 -6 3 -11 -2 -11 -5 0 -8 -10 -8 -22 l1 -23 -305
-2 c-168 -1 -314 -2 -325 -2 -11 -1 -68 0 -127 1 l-108 1 0 93 0 93 43 3 c33
2 673 1 800 -1z"/>
<path d="M283 284 c2 -25 0 -47 -4 -50 -4 -2 -5 -13 -2 -24 5 -19 14 -20 120
-20 88 0 118 -3 129 -15 9 -8 12 -15 7 -15 -28 0 60 -32 92 -34 41 -1 52 4 87
42 20 20 30 22 135 22 68 0 113 4 114 10 1 13 1 84 0 109 -1 18 -14 19 -341
20 l-340 0 3 -45z m637 -25 c0 -26 -2 -26 -52 -25 -29 1 -56 -3 -60 -9 -5 -6
-8 -5 -8 4 0 11 -3 11 -15 1 -9 -7 -15 -8 -15 -2 0 6 -8 9 -17 7 -10 -2 -28
-4 -40 -4 -16 -1 -23 -7 -23 -20 0 -27 -26 -44 -65 -44 -35 0 -75 26 -75 48 0
17 -53 26 -62 12 -6 -9 -8 -8 -8 2 0 11 -3 11 -15 1 -8 -7 -15 -8 -15 -3 0 12
-73 11 -82 -2 -5 -6 -8 -5 -8 4 0 10 -3 11 -14 2 -11 -9 -15 -7 -19 10 -12 46
-13 46 299 46 l294 -1 0 -27z"/>
<path d="M1873 506 c-76 -50 -89 -145 -28 -212 19 -21 35 -34 35 -30 0 5 7 3
15 -4 20 -17 76 -15 113 4 27 14 68 59 71 79 1 4 1 8 2 10 6 14 4 57 -2 57 -4
0 -6 9 -4 20 2 11 0 20 -5 20 -5 0 -11 8 -14 18 -16 51 -128 74 -183 38z m112
-29 c29 -15 45 -34 51 -59 11 -46 4 -74 -22 -99 -17 -16 -37 -22 -70 -23 -40
0 -50 4 -69 28 -30 37 -36 69 -19 102 29 54 82 76 129 51z"/>
</g>
</svg>
